<svg width="111" height="101" viewBox="0 0 111 101" fill="none" xmlns="http://www.w3.org/2000/svg">
<path d="M61.3012 85.1709C61.4902 85.4124 61.6786 85.6284 61.8676 85.8174V85.9307C62.0941 86.2327 62.2452 86.4216 62.3207 86.4971C62.3512 86.5123 62.3819 86.5315 62.4154 86.5498C62.3994 87.8381 62.3661 89.2007 62.3129 90.6377C62.3129 92.6949 62.2748 94.6001 62.1986 96.3525C62.1986 98.1048 62.1606 99.4001 62.0844 100.238C62.0844 100.314 62.0081 100.391 61.8559 100.467C61.7035 100.543 61.6274 100.543 61.6274 100.467C61.5512 99.6286 61.475 98.2952 61.3988 96.4668V90.5234C61.3988 88.6438 61.3648 86.8597 61.3012 85.1709ZM107.978 0.732428C108.28 0.656899 108.583 0.656899 108.885 0.732428C109.414 0.808055 109.867 1.11014 110.245 1.63868C110.698 2.09186 110.886 2.7346 110.811 3.56544C110.811 3.79177 110.773 3.94308 110.698 4.01856C110.622 4.62268 110.471 5.22694 110.245 5.83106C110.018 6.43524 109.829 7.03939 109.678 7.64356L107.072 16.2539L106.732 17.7266C106.43 18.8595 106.128 19.993 105.826 21.126C105.599 22.2588 105.259 23.3538 104.806 24.4111C104.806 24.4866 104.768 24.5622 104.693 24.6377V24.8643C104.164 27.4322 103.56 29.8494 102.88 32.1152C102.276 34.3056 101.672 35.8166 101.068 36.6475L99.141 43.1055C98.7634 45.5977 98.3481 47.9766 97.8949 50.2422C97.4418 52.4326 96.951 53.9436 96.4223 54.7744C96.1957 55.6051 95.9692 56.4359 95.7426 57.2666C95.516 58.0219 95.214 58.8157 94.8363 59.6465C94.3077 61.6855 93.779 63.498 93.2504 65.084C92.7972 66.6701 92.3055 67.7659 91.7768 68.3701C91.7013 68.5966 91.6257 68.8233 91.5502 69.0498C91.5502 69.2763 91.4747 69.503 91.3236 69.7295L90.9838 70.8623C90.6817 71.8441 90.4174 72.8636 90.1908 73.9209C89.9642 74.9783 89.6622 75.9608 89.2846 76.8672L88.9447 77.4336C88.9447 77.509 88.9069 77.5469 88.8315 77.5469V77.6602C88.7559 77.7357 88.6804 77.849 88.6049 78C88.5294 78.151 88.4161 78.3021 88.265 78.4531C88.114 78.4531 88.0385 78.5286 88.0385 78.6797C87.8874 78.7552 87.5853 79.0196 87.1322 79.4727C86.9056 80.6811 86.7169 81.8902 86.5658 83.0986C86.4903 84.3825 86.377 85.6664 86.226 86.9502C86.1505 87.2522 86.0749 87.5544 85.9994 87.8565C85.9239 88.2339 85.8105 88.574 85.6596 88.876C85.6596 88.9514 85.6217 89.065 85.5463 89.2158C85.4708 89.4423 85.3574 89.5177 85.2065 89.4424C84.9043 89.4424 84.7524 89.2159 84.7524 88.7627C84.6013 87.7054 84.5258 86.6481 84.5258 85.5908C84.5258 84.6091 84.488 83.6273 84.4125 82.6455H84.2992V82.7588C84.2238 82.8345 84.148 82.9858 84.0727 83.2119C83.9972 83.5137 83.9216 83.6273 83.8461 83.5518C83.695 83.1741 83.6195 82.7956 83.6195 82.418C83.6195 82.0405 83.5818 81.6627 83.5063 81.2852L82.1469 82.6455C82.0715 82.7209 81.9957 82.7967 81.9203 82.8721C81.8449 83.023 81.7692 83.1743 81.6938 83.3252C81.4673 83.5517 81.2784 83.8162 81.1274 84.1182C80.7498 84.7979 80.4477 85.4398 80.2211 86.044C79.9945 86.5726 79.768 87.139 79.5414 87.7432C79.3904 88.3473 79.1637 88.9516 78.8617 89.5557C78.7107 90.0089 78.4842 90.4628 78.182 90.916C77.88 91.369 77.5022 91.6712 77.0492 91.8223C76.9737 92.1243 76.8972 92.4265 76.8217 92.7285C76.7462 93.1061 76.6706 93.4838 76.5951 93.8613C76.5196 94.1634 76.4441 94.6166 76.3686 95.2207C76.3686 95.825 76.2553 96.0137 76.0287 95.7871C75.7268 95.4095 75.6134 94.9185 75.6889 94.3145C75.8399 93.7858 75.8399 93.295 75.6889 92.8418C75.6134 92.7663 75.5378 92.7285 75.4623 92.7285C75.3869 92.8039 75.3112 92.8418 75.2358 92.8418C75.1602 92.7663 75.0092 92.7285 74.7826 92.7285C74.7071 92.653 74.5938 92.5775 74.4428 92.502C74.3673 92.4264 74.3295 92.4264 74.3295 92.502C74.1785 93.3327 74.1029 94.1634 74.1029 94.9941C74.1029 95.9004 74.0274 96.7689 73.8764 97.5996C73.8008 97.6751 73.7253 97.5996 73.6498 97.3731C73.5743 97.1466 73.4987 96.9576 73.4233 96.8066L72.517 95.334C72.2149 94.7298 71.9128 94.0879 71.6108 93.4082C71.3087 92.8041 70.9688 92.2376 70.5912 91.709L70.2514 91.3691C69.9493 90.9915 69.6472 90.613 69.3451 90.2354C69.043 89.8577 68.74 89.5179 68.4379 89.2158L67.3051 88.083C67.2297 88.0829 67.154 88.0452 67.0785 87.9697C67.0029 87.97 66.8517 88.0832 66.6254 88.3096C66.3988 88.5361 66.1345 88.8382 65.8324 89.2158C65.5303 89.669 65.1906 89.7445 64.8129 89.4424C64.5109 89.1403 64.2465 88.8004 64.0199 88.4229C63.8689 88.1208 63.6801 87.8187 63.4535 87.5166L62.8871 86.8369C62.7064 86.7164 62.5481 86.6223 62.4154 86.5498C62.4224 85.9938 62.4272 85.4512 62.4272 84.9229C62.4272 83.1706 62.4652 81.8752 62.5414 81.0371H62.6557C62.6557 80.9611 62.694 80.9229 62.7699 80.9229H62.8842C62.958 80.8491 62.9961 80.8109 62.9984 80.8086C63.1508 80.6563 63.265 80.5039 63.3412 80.3516L64.0277 79.3232C64.0278 79.4755 64.0659 79.5899 64.142 79.666C64.218 79.7418 64.2562 79.7038 64.2563 79.5518C64.3324 79.3994 64.4086 79.2852 64.4848 79.209C65.0943 78.5233 65.5892 77.7228 65.9701 76.8086C66.1224 76.504 66.2367 76.2373 66.3129 76.0088C66.4653 75.704 66.6185 75.3985 66.7709 75.0938C66.9232 74.9415 67.0757 74.789 67.2279 74.6367C67.4564 74.4844 67.6469 74.3701 67.7992 74.294L69.9711 72.1221C70.5043 71.5127 71.0375 70.8271 71.5707 70.0654L72.3705 69.0361C73.1325 68.0456 73.7805 66.5982 74.3139 64.6934C75.2282 62.1789 75.685 59.5497 75.685 56.8066V54.1787C75.685 53.7215 75.6469 53.2638 75.5707 52.8066C75.5707 52.1209 75.4565 51.4348 75.2279 50.749C75.2278 50.673 75.1897 50.5966 75.1137 50.5205V50.1777L74.4281 48.1211C74.3519 47.9687 74.2758 47.8155 74.1996 47.6631C74.1235 47.4347 74.0473 47.2441 73.9711 47.0918C73.7426 46.1778 73.3997 45.4542 72.9428 44.9209C72.9428 44.8449 72.9044 44.8068 72.8285 44.8066C72.614 44.4428 72.3831 44.0859 72.1371 43.7363C72.1887 43.5463 72.2389 43.3735 72.2904 43.2188L72.7436 41.292L73.7631 37.2139C73.9141 36.5343 74.0652 35.8922 74.2162 35.2881C74.4428 34.6083 74.5938 33.9656 74.6693 33.3613L75.0092 32.1152C75.3868 30.3783 75.7644 28.7546 76.142 27.2441C76.5197 25.658 76.8604 24.4868 77.1625 23.7315L77.3891 23.165L78.182 20.2197C78.3331 19.1623 78.5219 18.1421 78.7484 17.1602C78.975 16.1029 79.2016 15.1211 79.4281 14.2149L79.8813 12.1758C80.1079 11.496 80.2966 10.891 80.4477 10.3623L80.8725 9.3711C80.8913 9.31456 80.9008 9.26721 80.9008 9.2295C80.9008 9.07856 80.9386 8.96514 81.0141 8.88965C81.1651 8.20996 81.3162 7.49251 81.4672 6.73731C81.6182 5.98213 81.8448 5.22687 82.1469 4.47169C82.2979 3.79191 82.4867 3.30017 82.7133 2.99805C82.9399 2.69599 83.2798 2.35608 83.7328 1.97852C84.0348 1.67657 84.2614 1.48773 84.4125 1.41212C85.0168 1.03446 85.6217 0.845709 86.226 0.845709C86.8301 0.770208 87.4721 0.732428 88.1518 0.732428H107.978ZM32.5326 1.65528C32.1501 2.12413 31.9575 2.64649 31.9574 3.22462C31.9574 3.45121 31.9952 3.71644 32.0707 4.01856L32.5238 5.71778C32.977 7.15267 33.3923 8.58757 33.7699 10.0225C34.2231 11.382 34.6384 12.7798 35.016 14.2149C35.1671 14.668 35.2426 14.97 35.2426 15.1211C35.3936 15.8008 35.5447 16.5183 35.6957 17.2734C35.9223 17.9532 36.1866 18.596 36.4887 19.2002L38.4135 25.6807C38.2239 25.5945 38.0368 25.4935 37.8539 25.376C37.6254 25.2237 37.3968 25.0713 37.1684 24.919C36.9399 24.6905 36.6732 24.5381 36.3686 24.4619C36.3685 24.3857 36.2161 24.2714 35.9115 24.1191C35.6068 24.1953 35.3013 24.3095 34.9965 24.4619C34.6918 24.5381 34.3871 24.6524 34.0824 24.8047C34.0063 24.8047 33.892 24.8428 33.7397 24.919H32.7113C32.4066 24.919 32.2153 24.957 32.1391 25.0332C32.1391 25.1094 32.0629 25.2236 31.9106 25.376C31.9106 25.4522 31.8725 25.4902 31.7963 25.4902C31.7963 25.4902 31.7963 25.5286 31.7963 25.6045C31.6439 25.9093 31.5678 26.1386 31.5678 26.291C31.4917 26.4434 31.4535 26.6721 31.4535 26.9766C31.4536 28.0432 32.0636 28.8436 33.2826 29.377C33.4351 29.5293 33.7398 29.6817 34.1967 29.834C34.8825 30.1388 35.6066 30.3671 36.3686 30.5195C37.495 30.816 38.7371 31.0876 40.0942 31.3379L43.2865 42.085C43.2865 42.1604 43.3245 42.2361 43.3998 42.3115C43.7775 44.1997 44.1172 46.0129 44.4193 47.75C44.797 49.4872 45.1755 50.7717 45.5531 51.6025C45.6285 51.7535 45.6664 51.9426 45.6664 52.169C45.7419 52.3954 45.8175 52.5844 45.893 52.7354L46.5727 55.4541C46.9503 56.9647 47.3656 58.5135 47.8188 60.0996C48.2719 61.6855 48.8005 63.0449 49.4047 64.1777V64.4043C49.4802 64.4043 49.5179 64.4422 49.518 64.5176C49.8199 64.9705 50.0466 65.2727 50.1977 65.4238L50.9906 68.0303C51.2927 69.1631 51.5948 70.3337 51.8969 71.542C52.2745 72.7505 52.5765 73.7707 52.8031 74.6016L53.143 75.7344C53.294 76.0364 53.3705 76.1875 53.3705 76.1875C53.5971 77.0182 54.0502 77.849 54.7299 78.6797C55.1075 79.0573 55.5606 79.3594 56.0893 79.5859C56.2403 79.6615 56.3914 79.737 56.5424 79.8125C56.6934 79.8125 56.8445 79.8503 56.9955 79.9258C57.1466 79.9258 57.4109 79.9636 57.7885 80.0391H58.4682C58.8087 80.6861 59.1501 81.3253 59.4906 81.957C59.4181 82.0771 59.3312 82.1907 59.227 82.2949C59.0746 82.5234 58.8842 82.7901 58.6557 83.0947C58.6556 83.171 58.5794 83.3615 58.4272 83.666C58.2749 83.8183 58.1606 83.8944 58.0844 83.8945H57.9701V84.0088C57.2844 85.2278 56.7124 86.5993 56.2553 88.1231L55.4555 90.752C55.3793 90.9805 55.2651 91.286 55.1127 91.667C55.0366 92.1237 54.9985 92.2379 54.9984 92.0098C54.8461 90.7908 54.77 89.5715 54.7699 88.3525C54.8461 87.1334 54.8081 85.9135 54.6557 84.6943C54.6557 84.7704 54.6174 84.8085 54.5414 84.8086C54.5414 84.8086 54.5414 84.8469 54.5414 84.9229C54.389 85.4562 54.1977 85.952 53.9692 86.4092C53.7406 86.9424 53.5121 87.4756 53.2836 88.0088C52.9027 88.8469 52.4458 89.6854 51.9125 90.5234C51.3791 91.3616 50.7692 92.1238 50.0834 92.8096C50.0072 92.8858 49.8549 93 49.6264 93.1524C49.474 93.3809 49.2836 93.5713 49.0551 93.7236C48.7503 94.0284 48.4458 94.3339 48.141 94.6387C47.9124 95.0195 47.4927 95.1338 46.8832 94.9815C46.426 94.7529 46.0074 94.4474 45.6264 94.0664C45.3216 93.8378 44.978 93.5333 44.5971 93.1524C44.2924 92.7715 43.9877 92.4287 43.683 92.124C43.0735 91.3621 42.5025 90.5236 41.9692 89.6094C41.512 88.7712 41.0162 87.8948 40.4828 86.9805L39.9115 85.8379C39.6829 85.4569 39.4546 85.1134 39.226 84.8086L38.8832 84.4658C38.883 84.3899 38.8066 84.3516 38.6547 84.3516C38.6547 84.3516 38.5015 84.2374 38.1967 84.0088C38.0445 84.085 37.9682 84.2375 37.9682 84.4658C37.9682 84.7706 37.8921 85 37.7397 85.1524C37.5874 85.4568 37.473 85.6094 37.3969 85.6094C37.3207 85.5332 37.2445 85.4188 37.1684 85.2666C37.1684 85.1142 37.1303 84.9991 37.0541 84.9229L36.7113 83.7803H36.5971C28.3679 83.6279 21.548 82.3709 16.1381 80.0088C10.8045 77.5705 6.80394 74.5607 4.13712 70.9795C3.60381 70.2938 3.14697 69.6076 2.76603 68.9219C2.38518 68.3125 2.08051 67.7031 1.85196 67.0938L1.39493 65.9502C1.16639 65.3407 0.97504 64.7315 0.822667 64.1221C0.670275 63.4363 0.518027 62.7883 0.365635 62.1787C0.289456 61.5693 0.175192 60.96 0.022862 60.3506C-0.0533274 59.6649 0.0609097 59.0168 0.365635 58.4072V58.293L0.479893 58.1787C0.632285 57.8739 0.937758 57.5694 1.39493 57.2647C1.69966 57.1123 2.00427 57.0352 2.30899 57.0352C2.61363 56.959 2.8803 56.9209 3.1088 56.9209C4.17548 56.8447 5.24231 56.8447 6.30899 56.9209H21.7387C22.4244 56.8447 23.0344 56.8066 23.5678 56.8066C24.0248 56.8067 24.4438 56.8447 24.8246 56.9209C25.2815 56.9209 25.6625 56.9591 25.9672 57.0352C26.5768 57.1114 27.0725 57.3026 27.4535 57.6074C27.9106 57.836 28.3676 58.1406 28.8246 58.5215L30.5395 59.6641C31.0728 59.9688 31.6058 60.2363 32.1391 60.4649C32.6724 60.6934 33.2063 60.8837 33.7397 61.0361C34.7301 61.3409 36.0635 61.4932 37.7397 61.4932C38.654 61.4932 39.5304 61.4551 40.3686 61.3789C41.2067 61.3027 41.9689 61.1885 42.6547 61.0361L43.7973 60.6934C43.9495 60.6173 44.0639 60.5792 44.14 60.5791C44.2922 60.5791 44.4066 60.5408 44.4828 60.4649C45.7019 59.8553 46.3119 59.1311 46.3119 58.293V58.1787C46.3119 57.7215 46.1216 57.2258 45.7406 56.6924L45.0551 56.0068H44.9408C44.636 55.8545 44.2164 55.8545 43.683 56.0068C43.1498 56.083 42.6928 56.1592 42.3119 56.2354C42.0071 56.2354 41.6636 56.2734 41.2826 56.3496H40.2543C40.14 56.3496 40.0258 56.328 39.9115 56.2852L39.683 56.1856C39.5688 56.1427 39.4545 56.1211 39.3402 56.1211C39.1118 56.1972 38.8831 56.2735 38.6547 56.3496C38.5023 56.4258 38.3491 56.5019 38.1967 56.5781C37.8158 56.7305 37.3969 56.8828 36.9399 57.0352C36.4828 57.1875 36.0259 57.3789 35.5688 57.6074C34.883 57.9122 34.1588 58.1787 33.3969 58.4072C32.7111 58.5596 31.987 58.4835 31.225 58.1787C30.768 58.0264 30.349 57.8359 29.9682 57.6074C29.5872 57.3788 29.2056 57.1495 28.8246 56.9209C28.0629 56.54 27.3393 56.1211 26.6537 55.6641C26.0442 55.2069 25.4341 54.712 24.8246 54.1787L22.1957 51.5498L21.2817 50.8633H20.4818C20.4057 50.9395 20.2915 51.0547 20.1391 51.207C20.0629 51.2832 19.9477 51.3974 19.7953 51.5498L18.767 52.5781C18.3861 52.959 18.0053 53.3017 17.6244 53.6065C17.4721 53.6826 17.2434 53.797 16.9389 53.9492C16.7103 54.1016 16.4809 54.1407 16.2524 54.0645C15.9476 53.9121 15.6811 53.6827 15.4525 53.3779C15.224 53.0732 15.0336 52.7686 14.8813 52.4639C14.6527 51.8543 14.4624 51.2063 14.31 50.5205C14.2338 49.835 14.0433 49.2256 13.7387 48.6924C13.4339 48.4638 13.0903 48.1973 12.7094 47.8926C12.4046 47.5878 12.1001 47.2823 11.7953 46.9775C11.7192 46.9014 11.643 46.8252 11.5668 46.749C11.5667 46.6729 11.4905 46.5966 11.3383 46.5205C10.8049 45.9871 10.4994 45.7207 10.4233 45.7207C10.4156 45.7169 10.2631 45.6406 9.96622 45.4922C9.81398 45.3399 9.73783 45.1874 9.73771 45.0352C9.052 44.4257 8.40484 43.7775 7.79532 43.0918C7.56674 42.787 7.29932 42.5206 6.99454 42.292C6.76596 41.9872 6.57564 41.6817 6.42325 41.377C6.1186 41.0723 5.85196 40.7295 5.62345 40.3486C5.39494 39.9678 5.16641 39.625 4.9379 39.3203C4.78562 39.0158 4.63315 38.749 4.48087 38.5205C4.32848 38.2157 4.17525 37.9103 4.02286 37.6055C3.33723 36.4626 2.80419 34.8626 2.42325 32.8057C2.11848 30.7485 2.0043 28.7291 2.08048 26.7481C2.15668 24.6908 2.38505 23.0902 2.76603 21.9473C2.91837 21.4902 3.07071 21.0332 3.22306 20.5762C3.37545 20.119 3.5277 19.6613 3.68009 19.2041C3.83241 18.7472 3.9848 18.4043 4.13712 18.1758C4.2895 17.7186 4.44274 17.3761 4.59513 17.1475C7.03335 12.4234 10.9568 8.68933 16.3666 5.9463C20.9388 3.56361 26.3277 2.13309 32.5326 1.65528ZM60.141 79.7803C60.2172 79.7803 60.2553 79.8183 60.2553 79.8945H60.3705V80.1231H60.4848C60.637 80.2753 60.7133 80.3516 60.7133 80.3516C60.8656 80.4278 61.018 80.5421 61.1703 80.6943C61.2465 81.6086 61.2846 82.942 61.2846 84.6943C61.2912 84.8522 61.2952 85.0113 61.3012 85.1709C61.2636 85.1229 61.2254 85.0745 61.1879 85.0244C61.0368 84.7978 60.8849 84.5336 60.7338 84.2315C60.3191 83.4849 59.9054 82.7264 59.4906 81.957C59.5772 81.8138 59.6425 81.6599 59.684 81.4941C59.8363 81.1133 59.9125 80.8086 59.9125 80.5801C59.9125 80.3516 59.9506 80.123 60.0268 79.8945L60.141 79.7803ZM70.0483 41.3008C70.838 42.0705 71.5354 42.8812 72.1371 43.7363C72.1132 43.8244 72.0878 43.9161 72.0639 44.0117C71.9884 44.2382 71.9128 44.4649 71.8373 44.6914C71.8372 44.7669 71.7995 44.8804 71.724 45.0313V45.2578C71.6485 45.4089 71.6108 45.6355 71.6108 45.9375C71.5352 46.013 71.4975 46.0885 71.4975 46.1641H71.2709L71.1576 45.7109L70.8178 44.2383L70.0483 41.3008ZM38.4135 25.6807C39.3297 26.0973 40.3237 26.1486 41.3969 25.833C41.5493 25.833 41.6644 25.795 41.7406 25.7188C41.9692 25.9473 42.1976 26.1767 42.4262 26.4053C42.6546 26.6338 42.8451 26.8623 42.9975 27.0908C43.4545 27.624 43.8734 28.2334 44.2543 28.919C44.7115 29.5285 45.2834 29.9862 45.9692 30.291C46.5023 30.4433 46.9975 30.4814 47.4545 30.4053C47.9879 30.3291 48.4837 30.2149 48.9408 30.0625C49.2455 29.9863 49.5121 29.872 49.7406 29.7197C50.0453 29.5674 50.3501 29.4532 50.6547 29.377C51.4928 29.3008 52.2931 29.1856 53.0551 29.0332C53.817 28.8808 54.5793 28.7286 55.3412 28.5762L56.2553 28.3477C56.4837 28.3477 56.7124 28.3858 56.9408 28.4619C57.1694 28.5381 57.3988 28.6142 57.6274 28.6904C57.9321 28.8428 58.2367 29.0341 58.5414 29.2627C58.8461 29.415 59.1508 29.5293 59.4555 29.6055C59.9127 29.6817 60.3704 29.6436 60.8275 29.4912C61.2846 29.2627 61.7415 29.1485 62.1986 29.1484C62.8082 29.1484 63.4182 29.2626 64.0277 29.4912C64.6371 29.6435 65.2465 29.7197 65.8559 29.7197C66.2805 29.6667 66.6673 29.5556 67.018 29.3916L67.5317 31.3223C67.5317 31.5488 67.6072 31.8132 67.7582 32.1152C67.9092 32.6438 68.0603 33.2104 68.2113 33.8145C68.3624 34.4187 68.5134 35.0237 68.6645 35.6279C68.8155 36.2321 68.9675 36.8741 69.1186 37.5537C69.2696 38.2334 69.4207 38.8753 69.5717 39.4795L70.0483 41.3008C65.8875 37.2456 59.1194 34.3748 49.7406 32.6914C49.4359 32.6152 49.1313 32.5772 48.8266 32.5772C48.5981 32.501 48.3695 32.4629 48.141 32.4629C48.065 32.4629 47.9886 32.4245 47.9125 32.3486H47.226L45.0551 32.0049H44.5971C44.4449 31.9289 44.2923 31.8906 44.14 31.8906L41.2826 31.5479C40.877 31.4803 40.481 31.4093 40.0942 31.3379L38.4135 25.6807ZM61.6596 8.40333C62.8881 9.23777 64.0209 10.1324 65.0561 11.0899C68.1037 13.8327 70.2754 16.6897 71.5707 19.6611C71.7231 20.1183 71.8754 20.576 72.0277 21.0332C72.2563 21.4902 72.4086 21.9473 72.4848 22.4043C72.6372 22.8615 72.7523 23.3573 72.8285 23.8906C72.9808 24.4238 72.9808 24.9571 72.8285 25.4902C72.6761 26.176 72.3707 26.7098 71.9135 27.0908C71.6088 27.3955 71.3422 27.5859 71.1137 27.6621C71.1137 27.6621 71.0375 27.7383 70.8852 27.8906C70.809 27.8906 70.7328 27.8525 70.6567 27.7764C70.5805 27.8525 70.5042 27.8905 70.4281 27.8906C70.352 27.8145 70.2376 27.8146 70.0854 27.8906C69.933 27.8906 69.7417 27.9668 69.5131 28.1191C69.3608 28.1953 69.2084 28.2715 69.0561 28.3477C68.5227 28.5762 67.9898 28.8437 67.4565 29.1484C67.3178 29.2409 67.1707 29.3202 67.018 29.3916L64.6996 20.6729C64.3975 18.407 64.02 16.2919 63.5668 14.3281C63.1892 12.2888 62.6984 10.8155 62.0942 9.90919C62.094 9.75825 62.0185 9.60699 61.8676 9.45606C61.8675 9.3052 61.8297 9.19171 61.7543 9.11622V8.88965C61.7248 8.72742 61.692 8.56556 61.6596 8.40333ZM54.9565 0.732428C55.5606 0.732439 56.127 0.770191 56.6557 0.845709C57.2598 0.921235 57.8263 1.11008 58.3549 1.41212C58.8835 1.71417 59.3745 2.20524 59.8275 2.88477C60.1297 3.18689 60.3184 3.52763 60.394 3.90528C60.7716 4.66053 61.0369 5.49117 61.1879 6.39747C61.3702 7.06595 61.5262 7.73484 61.6596 8.40333C59.2709 6.78082 56.5176 5.38974 53.3979 4.23243C48.7499 2.40375 43.2641 1.48927 36.9399 1.48926H36.0258C34.8341 1.51286 33.6695 1.56774 32.5326 1.65528C32.5998 1.573 32.6715 1.49103 32.7504 1.41212C32.9015 1.26111 33.1281 1.10999 33.4301 0.958991C33.7321 0.807975 33.9965 0.732452 34.2231 0.732428H54.9565Z" fill="white"/>
</svg>
